<mxfile host="app.diagrams.net" modified="2023-06-12T03:20:28.332Z" agent="Mozilla/5.0 (Macintosh; Intel Mac OS X 10_15_7) AppleWebKit/605.1.15 (KHTML, like Gecko) Version/16.4 Safari/605.1.15" etag="TnHj8513eSR6cnauJhfa" version="21.3.8" type="github">
  <diagram name="Page-1" id="f1b7ffb7-ca1e-a977-7cf5-a751b3c06c05">
    <mxGraphModel dx="927" dy="582" grid="1" gridSize="10" guides="1" tooltips="1" connect="1" arrows="1" fold="1" page="1" pageScale="1" pageWidth="826" pageHeight="1169" background="none" math="0" shadow="0">
      <root>
        <mxCell id="0" />
        <mxCell id="1" parent="0" />
        <mxCell id="13" value="" style="verticalLabelPosition=bottom;verticalAlign=top;strokeWidth=1;shape=mxgraph.mockup.graphics.iconGrid;strokeColor=#666666;gridSize=1,1;fillColor=#444444;gradientColor=#b3b3b3;gradientDirection=north;" parent="1" vertex="1">
          <mxGeometry x="3" y="80" width="820" height="250" as="geometry" />
        </mxCell>
        <mxCell id="xKD4JRFba7Fiyy8XvRiu-67" style="edgeStyle=orthogonalEdgeStyle;rounded=0;orthogonalLoop=1;jettySize=auto;html=1;exitX=0;exitY=0.5;exitDx=0;exitDy=0;" edge="1" parent="1" source="21">
          <mxGeometry relative="1" as="geometry">
            <mxPoint x="352.80952380952374" y="40.14285714285711" as="targetPoint" />
            <Array as="points">
              <mxPoint x="340" y="40" />
              <mxPoint x="340" y="40" />
            </Array>
          </mxGeometry>
        </mxCell>
        <mxCell id="21" value="PART TIME &#xa;SUPER HEROES" style="text;spacingTop=-3;align=center;fillColor=#e51400;fontColor=#ffffff;strokeColor=#B20000;gradientColor=#000000;fillStyle=auto;shadow=0;spacingBottom=0;fontSize=22;spacing=0;fontStyle=0" parent="1" vertex="1">
          <mxGeometry x="310" y="10" width="210" height="60" as="geometry" />
        </mxCell>
        <mxCell id="xKD4JRFba7Fiyy8XvRiu-66" value="" style="line;strokeWidth=1;html=1;fillColor=#e51400;fontColor=#ffffff;strokeColor=#B20000;opacity=70;" vertex="1" parent="1">
          <mxGeometry x="513" y="35" width="230" height="10" as="geometry" />
        </mxCell>
        <mxCell id="xKD4JRFba7Fiyy8XvRiu-68" value="&lt;div style=&quot;font-size: 18px;&quot;&gt;&lt;u&gt;Upcoming Shows&amp;nbsp;&lt;/u&gt;&lt;/div&gt;&lt;ul style=&quot;font-size: 18px;&quot;&gt;&lt;ul&gt;&lt;li style=&quot;font-size: 18px;&quot;&gt;01 January 2001 &amp;nbsp; &amp;nbsp; &amp;nbsp; Time - Time Location, AK&lt;/li&gt;&lt;/ul&gt;&lt;/ul&gt;&lt;ul style=&quot;font-size: 18px;&quot;&gt;&lt;ul&gt;&lt;li style=&quot;font-size: 18px;&quot;&gt;01 January 2001 Time - Time Location, AK&lt;/li&gt;&lt;/ul&gt;&lt;/ul&gt;&lt;ul style=&quot;font-size: 18px;&quot;&gt;&lt;ul&gt;&lt;li style=&quot;font-size: 18px;&quot;&gt;01 January 2001 Time - Time Location, AK&lt;/li&gt;&lt;/ul&gt;&lt;/ul&gt;" style="text;strokeColor=none;fillColor=none;html=1;whiteSpace=wrap;verticalAlign=middle;overflow=hidden;fontSize=18;horizontal=1;" vertex="1" parent="1">
          <mxGeometry x="40" y="330" width="250" height="330" as="geometry" />
        </mxCell>
        <mxCell id="xKD4JRFba7Fiyy8XvRiu-70" value="Article 1 photo" style="text;strokeColor=none;align=center;fillColor=none;html=1;verticalAlign=middle;whiteSpace=wrap;rounded=0;" vertex="1" parent="1">
          <mxGeometry x="383" y="190" width="60" height="30" as="geometry" />
        </mxCell>
        <mxCell id="xKD4JRFba7Fiyy8XvRiu-72" value="Contact" style="text;strokeColor=none;align=center;fillColor=none;html=1;verticalAlign=middle;whiteSpace=wrap;rounded=0;fontColor=#ebebeb;" vertex="1" parent="1">
          <mxGeometry x="668" y="25" width="60" height="30" as="geometry" />
        </mxCell>
        <mxCell id="xKD4JRFba7Fiyy8XvRiu-73" value="About" style="text;strokeColor=none;align=center;fillColor=none;html=1;verticalAlign=middle;whiteSpace=wrap;rounded=0;" vertex="1" parent="1">
          <mxGeometry x="598" y="25" width="60" height="30" as="geometry" />
        </mxCell>
        <mxCell id="xKD4JRFba7Fiyy8XvRiu-74" value="Merch&lt;br&gt;" style="text;strokeColor=none;align=center;fillColor=none;html=1;verticalAlign=middle;whiteSpace=wrap;rounded=0;" vertex="1" parent="1">
          <mxGeometry x="528" y="25" width="60" height="30" as="geometry" />
        </mxCell>
        <mxCell id="xKD4JRFba7Fiyy8XvRiu-77" value="" style="line;strokeWidth=1;html=1;fillColor=#e51400;fontColor=#ffffff;strokeColor=#B20000;opacity=70;" vertex="1" parent="1">
          <mxGeometry x="80" y="35" width="230" height="10" as="geometry" />
        </mxCell>
        <mxCell id="xKD4JRFba7Fiyy8XvRiu-78" value="Listen" style="text;strokeColor=none;align=center;fillColor=none;html=1;verticalAlign=middle;whiteSpace=wrap;rounded=0;" vertex="1" parent="1">
          <mxGeometry x="241" y="25" width="60" height="30" as="geometry" />
        </mxCell>
        <mxCell id="xKD4JRFba7Fiyy8XvRiu-79" value="Gallery" style="text;strokeColor=none;align=center;fillColor=none;html=1;verticalAlign=middle;whiteSpace=wrap;rounded=0;" vertex="1" parent="1">
          <mxGeometry x="181" y="25" width="60" height="30" as="geometry" />
        </mxCell>
        <mxCell id="xKD4JRFba7Fiyy8XvRiu-80" value="Calendar" style="text;strokeColor=none;align=center;fillColor=none;html=1;verticalAlign=middle;whiteSpace=wrap;rounded=0;" vertex="1" parent="1">
          <mxGeometry x="111" y="25" width="60" height="30" as="geometry" />
        </mxCell>
        <mxCell id="xKD4JRFba7Fiyy8XvRiu-81" value="" style="swimlane;startSize=0;" vertex="1" parent="1">
          <mxGeometry x="35" y="350" width="285" height="290" as="geometry" />
        </mxCell>
        <mxCell id="xKD4JRFba7Fiyy8XvRiu-82" value="" style="swimlane;startSize=0;" vertex="1" parent="1">
          <mxGeometry x="398" y="350" width="401" height="290" as="geometry" />
        </mxCell>
        <mxCell id="xKD4JRFba7Fiyy8XvRiu-85" value="Article 3 &lt;span style=&quot;white-space: pre;&quot;&gt;&#x9;&lt;br/&gt;&lt;/span&gt;video montage &lt;span style=&quot;white-space: pre;&quot;&gt;&lt;br&gt;&lt;/span&gt;from past concerts" style="text;strokeColor=none;align=center;fillColor=none;html=1;verticalAlign=middle;whiteSpace=wrap;rounded=0;" vertex="1" parent="xKD4JRFba7Fiyy8XvRiu-82">
          <mxGeometry x="130.5" y="110" width="139" height="70" as="geometry" />
        </mxCell>
        <mxCell id="xKD4JRFba7Fiyy8XvRiu-86" value="" style="rounded=0;whiteSpace=wrap;html=1;" vertex="1" parent="1">
          <mxGeometry x="3" y="710" width="817" height="120" as="geometry" />
        </mxCell>
        <mxCell id="xKD4JRFba7Fiyy8XvRiu-84" value="article&amp;nbsp;2 &lt;br&gt;calendar" style="text;strokeColor=none;align=center;fillColor=none;html=1;verticalAlign=middle;whiteSpace=wrap;rounded=0;" vertex="1" parent="1">
          <mxGeometry x="240" y="353" width="80" height="30" as="geometry" />
        </mxCell>
        <mxCell id="xKD4JRFba7Fiyy8XvRiu-89" value="" style="whiteSpace=wrap;html=1;aspect=fixed;" vertex="1" parent="1">
          <mxGeometry x="40" y="720" width="100" height="100" as="geometry" />
        </mxCell>
        <mxCell id="xKD4JRFba7Fiyy8XvRiu-90" value="" style="whiteSpace=wrap;html=1;aspect=fixed;" vertex="1" parent="1">
          <mxGeometry x="154" y="720" width="100" height="100" as="geometry" />
        </mxCell>
        <mxCell id="xKD4JRFba7Fiyy8XvRiu-95" value="&amp;lt;" style="rounded=0;whiteSpace=wrap;html=1;labelBackgroundColor=#616161;" vertex="1" parent="1">
          <mxGeometry x="3" y="710" width="20" height="120" as="geometry" />
        </mxCell>
        <mxCell id="xKD4JRFba7Fiyy8XvRiu-97" value="&amp;lt;" style="rounded=0;whiteSpace=wrap;html=1;labelBackgroundColor=#616161;rotation=-180;" vertex="1" parent="1">
          <mxGeometry x="800" y="710" width="20" height="120" as="geometry" />
        </mxCell>
        <mxCell id="xKD4JRFba7Fiyy8XvRiu-91" value="" style="whiteSpace=wrap;html=1;aspect=fixed;" vertex="1" parent="1">
          <mxGeometry x="268" y="720" width="100" height="100" as="geometry" />
        </mxCell>
        <mxCell id="xKD4JRFba7Fiyy8XvRiu-92" value="" style="whiteSpace=wrap;html=1;aspect=fixed;" vertex="1" parent="1">
          <mxGeometry x="382" y="720" width="100" height="100" as="geometry" />
        </mxCell>
        <mxCell id="xKD4JRFba7Fiyy8XvRiu-93" value="" style="whiteSpace=wrap;html=1;aspect=fixed;" vertex="1" parent="1">
          <mxGeometry x="496" y="720" width="100" height="100" as="geometry" />
        </mxCell>
        <mxCell id="xKD4JRFba7Fiyy8XvRiu-94" value="" style="whiteSpace=wrap;html=1;aspect=fixed;" vertex="1" parent="1">
          <mxGeometry x="611" y="720" width="100" height="100" as="geometry" />
        </mxCell>
        <mxCell id="xKD4JRFba7Fiyy8XvRiu-99" value="" style="rounded=0;whiteSpace=wrap;html=1;" vertex="1" parent="1">
          <mxGeometry x="727" y="720" width="72" height="100" as="geometry" />
        </mxCell>
        <mxCell id="xKD4JRFba7Fiyy8XvRiu-100" value="Full Gallery" style="rounded=0;whiteSpace=wrap;html=1;labelBackgroundColor=default;" vertex="1" parent="1">
          <mxGeometry x="30" y="670" width="120" height="30" as="geometry" />
        </mxCell>
        <mxCell id="xKD4JRFba7Fiyy8XvRiu-101" value="Video Gallery" style="rounded=0;whiteSpace=wrap;html=1;" vertex="1" parent="1">
          <mxGeometry x="680" y="660" width="120" height="30" as="geometry" />
        </mxCell>
        <mxCell id="xKD4JRFba7Fiyy8XvRiu-110" value="" style="swimlane;startSize=0;" vertex="1" parent="1">
          <mxGeometry x="54" y="870" width="200" height="280" as="geometry" />
        </mxCell>
        <mxCell id="xKD4JRFba7Fiyy8XvRiu-113" value="Article 6&lt;br&gt;spotify playlist" style="text;strokeColor=none;align=center;fillColor=none;html=1;verticalAlign=middle;whiteSpace=wrap;rounded=0;" vertex="1" parent="xKD4JRFba7Fiyy8XvRiu-110">
          <mxGeometry x="140" y="10" width="60" height="30" as="geometry" />
        </mxCell>
        <mxCell id="xKD4JRFba7Fiyy8XvRiu-114" value="&lt;font style=&quot;font-size: 19px;&quot;&gt;Spotify Playlist&lt;br&gt;&lt;/font&gt;&lt;ul style=&quot;font-size: 19px; line-height: 170%;&quot;&gt;&lt;li&gt;&lt;font style=&quot;font-size: 19px;&quot;&gt;Song name&lt;/font&gt;&lt;/li&gt;&lt;li&gt;&lt;font style=&quot;font-size: 19px;&quot;&gt;Song name&lt;/font&gt;&lt;/li&gt;&lt;li&gt;&lt;font style=&quot;font-size: 19px;&quot;&gt;Song name&lt;/font&gt;&lt;/li&gt;&lt;li&gt;&lt;font style=&quot;font-size: 19px;&quot;&gt;Song name&lt;/font&gt;&lt;/li&gt;&lt;li&gt;&lt;font style=&quot;font-size: 19px;&quot;&gt;Song name&lt;/font&gt;&lt;/li&gt;&lt;li&gt;&lt;font style=&quot;font-size: 19px;&quot;&gt;Song name&lt;/font&gt;&lt;/li&gt;&lt;/ul&gt;" style="text;strokeColor=none;align=left;fillColor=none;html=1;verticalAlign=middle;whiteSpace=wrap;rounded=0;" vertex="1" parent="xKD4JRFba7Fiyy8XvRiu-110">
          <mxGeometry x="12" y="10" width="178" height="260" as="geometry" />
        </mxCell>
        <mxCell id="xKD4JRFba7Fiyy8XvRiu-111" value="&lt;font color=&quot;#606060&quot;&gt;Article 4 buttons&lt;/font&gt;" style="text;strokeColor=none;align=center;fillColor=none;html=1;verticalAlign=middle;whiteSpace=wrap;rounded=0;" vertex="1" parent="1">
          <mxGeometry x="112" y="670" width="189" height="30" as="geometry" />
        </mxCell>
        <mxCell id="xKD4JRFba7Fiyy8XvRiu-112" value="Article 5 scroll bar" style="text;strokeColor=none;align=center;fillColor=none;html=1;verticalAlign=middle;whiteSpace=wrap;rounded=0;" vertex="1" parent="1">
          <mxGeometry x="288" y="755" width="60" height="30" as="geometry" />
        </mxCell>
        <mxCell id="xKD4JRFba7Fiyy8XvRiu-115" value="" style="swimlane;startSize=0;" vertex="1" parent="1">
          <mxGeometry x="568" y="870" width="200" height="280" as="geometry" />
        </mxCell>
        <mxCell id="xKD4JRFba7Fiyy8XvRiu-116" value="Article 8&lt;br&gt;iTunes playlist" style="text;strokeColor=none;align=center;fillColor=none;html=1;verticalAlign=middle;whiteSpace=wrap;rounded=0;" vertex="1" parent="xKD4JRFba7Fiyy8XvRiu-115">
          <mxGeometry x="140" y="10" width="60" height="30" as="geometry" />
        </mxCell>
        <mxCell id="xKD4JRFba7Fiyy8XvRiu-117" value="&lt;font style=&quot;font-size: 19px;&quot;&gt;iTunes Playlist&lt;br&gt;&lt;/font&gt;&lt;ul style=&quot;font-size: 19px; line-height: 170%;&quot;&gt;&lt;li&gt;&lt;font style=&quot;font-size: 19px;&quot;&gt;Song name&lt;/font&gt;&lt;/li&gt;&lt;li&gt;&lt;font style=&quot;font-size: 19px;&quot;&gt;Song name&lt;/font&gt;&lt;/li&gt;&lt;li&gt;&lt;font style=&quot;font-size: 19px;&quot;&gt;Song name&lt;/font&gt;&lt;/li&gt;&lt;li&gt;&lt;font style=&quot;font-size: 19px;&quot;&gt;Song name&lt;/font&gt;&lt;/li&gt;&lt;li&gt;&lt;font style=&quot;font-size: 19px;&quot;&gt;Song name&lt;/font&gt;&lt;/li&gt;&lt;li&gt;&lt;font style=&quot;font-size: 19px;&quot;&gt;Song name&lt;/font&gt;&lt;/li&gt;&lt;/ul&gt;" style="text;strokeColor=none;align=left;fillColor=none;html=1;verticalAlign=middle;whiteSpace=wrap;rounded=0;" vertex="1" parent="xKD4JRFba7Fiyy8XvRiu-115">
          <mxGeometry x="12" y="10" width="178" height="260" as="geometry" />
        </mxCell>
        <mxCell id="xKD4JRFba7Fiyy8XvRiu-118" value="" style="rounded=0;whiteSpace=wrap;html=1;" vertex="1" parent="1">
          <mxGeometry x="303" y="870" width="220" height="100" as="geometry" />
        </mxCell>
        <mxCell id="xKD4JRFba7Fiyy8XvRiu-119" value="" style="rounded=0;whiteSpace=wrap;html=1;" vertex="1" parent="1">
          <mxGeometry x="303" y="1040" width="220" height="100" as="geometry" />
        </mxCell>
        <mxCell id="xKD4JRFba7Fiyy8XvRiu-120" value="Article 7&amp;nbsp;&lt;br&gt;Lyric Videos" style="text;strokeColor=none;align=center;fillColor=none;html=1;verticalAlign=middle;whiteSpace=wrap;rounded=0;" vertex="1" parent="1">
          <mxGeometry x="380" y="900" width="60" height="30" as="geometry" />
        </mxCell>
        <mxCell id="xKD4JRFba7Fiyy8XvRiu-121" value="Article 7&amp;nbsp;&lt;br&gt;Lyric Videos" style="text;strokeColor=none;align=center;fillColor=none;html=1;verticalAlign=middle;whiteSpace=wrap;rounded=0;" vertex="1" parent="1">
          <mxGeometry x="380" y="1075" width="60" height="30" as="geometry" />
        </mxCell>
        <mxCell id="xKD4JRFba7Fiyy8XvRiu-122" value="&amp;nbsp;v &amp;nbsp;Lyric videos &amp;nbsp;^" style="text;strokeColor=none;align=center;fillColor=none;html=1;verticalAlign=middle;whiteSpace=wrap;rounded=0;" vertex="1" parent="1">
          <mxGeometry x="360" y="995" width="110" height="30" as="geometry" />
        </mxCell>
        <mxCell id="xKD4JRFba7Fiyy8XvRiu-124" value="" style="swimlane;startSize=0;" vertex="1" parent="1">
          <mxGeometry y="1200" width="817" height="240" as="geometry" />
        </mxCell>
        <mxCell id="xKD4JRFba7Fiyy8XvRiu-125" value="Article 9 Merch" style="text;strokeColor=none;align=center;fillColor=none;html=1;verticalAlign=middle;whiteSpace=wrap;rounded=0;" vertex="1" parent="xKD4JRFba7Fiyy8XvRiu-124">
          <mxGeometry x="363" width="100" height="30" as="geometry" />
        </mxCell>
        <mxCell id="xKD4JRFba7Fiyy8XvRiu-126" value="" style="whiteSpace=wrap;html=1;aspect=fixed;" vertex="1" parent="xKD4JRFba7Fiyy8XvRiu-124">
          <mxGeometry x="37" y="19" width="200" height="200" as="geometry" />
        </mxCell>
        <mxCell id="xKD4JRFba7Fiyy8XvRiu-127" value="" style="whiteSpace=wrap;html=1;aspect=fixed;" vertex="1" parent="xKD4JRFba7Fiyy8XvRiu-124">
          <mxGeometry x="688" y="20" width="90" height="90" as="geometry" />
        </mxCell>
        <mxCell id="xKD4JRFba7Fiyy8XvRiu-129" value="" style="whiteSpace=wrap;html=1;aspect=fixed;" vertex="1" parent="xKD4JRFba7Fiyy8XvRiu-124">
          <mxGeometry x="688" y="130" width="90" height="90" as="geometry" />
        </mxCell>
        <mxCell id="xKD4JRFba7Fiyy8XvRiu-130" value="" style="whiteSpace=wrap;html=1;aspect=fixed;" vertex="1" parent="xKD4JRFba7Fiyy8XvRiu-124">
          <mxGeometry x="575" y="19" width="91" height="91" as="geometry" />
        </mxCell>
        <mxCell id="xKD4JRFba7Fiyy8XvRiu-131" value="" style="whiteSpace=wrap;html=1;aspect=fixed;" vertex="1" parent="xKD4JRFba7Fiyy8XvRiu-124">
          <mxGeometry x="575" y="130" width="89" height="89" as="geometry" />
        </mxCell>
        <mxCell id="xKD4JRFba7Fiyy8XvRiu-132" value="The Goods" style="text;strokeColor=none;align=center;fillColor=none;html=1;verticalAlign=middle;whiteSpace=wrap;rounded=0;fontSize=20;" vertex="1" parent="xKD4JRFba7Fiyy8XvRiu-124">
          <mxGeometry x="348" y="40" width="130" height="30" as="geometry" />
        </mxCell>
        <mxCell id="xKD4JRFba7Fiyy8XvRiu-137" value="This doesn’t look like the layout on my phone so filler font here about made-to order means options idk.&lt;br style=&quot;font-size: 15px;&quot;&gt;How do i get the AR right?" style="text;strokeColor=none;align=center;fillColor=none;html=1;verticalAlign=middle;whiteSpace=wrap;rounded=0;fontSize=15;" vertex="1" parent="xKD4JRFba7Fiyy8XvRiu-124">
          <mxGeometry x="303.5" y="120" width="210" height="70" as="geometry" />
        </mxCell>
        <mxCell id="xKD4JRFba7Fiyy8XvRiu-133" style="edgeStyle=orthogonalEdgeStyle;rounded=0;orthogonalLoop=1;jettySize=auto;html=1;exitX=0.5;exitY=1;exitDx=0;exitDy=0;" edge="1" parent="1" source="xKD4JRFba7Fiyy8XvRiu-124" target="xKD4JRFba7Fiyy8XvRiu-124">
          <mxGeometry relative="1" as="geometry" />
        </mxCell>
        <mxCell id="xKD4JRFba7Fiyy8XvRiu-139" value="" style="rounded=0;whiteSpace=wrap;html=1;" vertex="1" parent="1">
          <mxGeometry x="20" y="1470" width="790" height="830" as="geometry" />
        </mxCell>
        <mxCell id="xKD4JRFba7Fiyy8XvRiu-140" value="Article 10 About" style="text;strokeColor=none;align=center;fillColor=none;html=1;verticalAlign=middle;whiteSpace=wrap;rounded=0;" vertex="1" parent="1">
          <mxGeometry x="343" y="1470" width="140" height="30" as="geometry" />
        </mxCell>
        <mxCell id="xKD4JRFba7Fiyy8XvRiu-141" value="&lt;font style=&quot;font-size: 18px;&quot;&gt;Meet the Band&lt;/font&gt;" style="text;strokeColor=none;align=left;fillColor=none;html=1;verticalAlign=middle;whiteSpace=wrap;rounded=0;" vertex="1" parent="1">
          <mxGeometry x="23" y="1480" width="167" height="30" as="geometry" />
        </mxCell>
        <mxCell id="xKD4JRFba7Fiyy8XvRiu-142" value="&quot;Lorem ipsum dolor sit amet, consectetur adipiscing elit, sed do eiusmod tempor incididunt ut labore et dolore magna aliqua. Ut enim ad minim veniam, quis nostrud exercitation ullamco laboris nisi ut aliquip ex ea commodo consequat. Duis aute irure dolor in reprehenderit in voluptate velit esse cillum dolore eu fugiat nulla pariatur. Excepteur sint occaecat cupidatat non proident.&quot;" style="text;strokeColor=none;align=left;fillColor=none;html=1;verticalAlign=middle;whiteSpace=wrap;rounded=0;fontSize=15;" vertex="1" parent="1">
          <mxGeometry x="55" y="1510" width="720" height="90" as="geometry" />
        </mxCell>
        <mxCell id="xKD4JRFba7Fiyy8XvRiu-143" value="" style="verticalLabelPosition=bottom;shadow=0;dashed=0;align=center;html=1;verticalAlign=top;strokeWidth=1;shape=mxgraph.mockup.containers.userMale;strokeColor=#666666;strokeColor2=#008cff;" vertex="1" parent="1">
          <mxGeometry x="50" y="1620" width="80" height="80" as="geometry" />
        </mxCell>
        <mxCell id="xKD4JRFba7Fiyy8XvRiu-144" value="&quot;Lorem ipsum dolor sit amet, consectetur adipiscing elit, sed do eiusmod tempor incididunt ut labore et dolore magna aliqua. Ut enim ad minim veniam, quis nostrud exercitation ullamco laboris nisi ut aliquip ex ea commodo consequat. Duis aute irure dolor in reprehenderit in voluptate velit esse cillum dolore eu fugiat nulla pariatur.&quot;" style="text;strokeColor=none;align=left;fillColor=none;html=1;verticalAlign=middle;whiteSpace=wrap;rounded=0;fontSize=15;" vertex="1" parent="1">
          <mxGeometry x="155" y="1615" width="620" height="90" as="geometry" />
        </mxCell>
        <mxCell id="xKD4JRFba7Fiyy8XvRiu-145" value="Name&lt;br&gt;fb ig tw yt x y" style="text;strokeColor=none;align=center;fillColor=none;html=1;verticalAlign=middle;whiteSpace=wrap;rounded=0;" vertex="1" parent="1">
          <mxGeometry x="50" y="1700" width="80" height="30" as="geometry" />
        </mxCell>
        <mxCell id="xKD4JRFba7Fiyy8XvRiu-146" value="" style="verticalLabelPosition=bottom;shadow=0;dashed=0;align=center;html=1;verticalAlign=top;strokeWidth=1;shape=mxgraph.mockup.containers.userMale;strokeColor=#666666;strokeColor2=#008cff;" vertex="1" parent="1">
          <mxGeometry x="700" y="1730" width="80" height="80" as="geometry" />
        </mxCell>
        <mxCell id="xKD4JRFba7Fiyy8XvRiu-147" value="&quot;Lorem ipsum dolor sit amet, consectetur adipiscing elit, sed do eiusmod tempor incididunt ut labore et dolore magna aliqua. Ut enim ad minim veniam, quis nostrud exercitation ullamco laboris nisi ut aliquip ex ea commodo consequat. Duis aute irure dolor in reprehenderit in voluptate velit esse cillum dolore eu fugiat nulla pariatur.&quot;" style="text;strokeColor=none;align=right;fillColor=none;html=1;verticalAlign=middle;whiteSpace=wrap;rounded=0;fontSize=15;" vertex="1" parent="1">
          <mxGeometry x="50" y="1740" width="620" height="90" as="geometry" />
        </mxCell>
        <mxCell id="xKD4JRFba7Fiyy8XvRiu-148" value="Name&lt;br&gt;fb ig tw yt x y" style="text;strokeColor=none;align=center;fillColor=none;html=1;verticalAlign=middle;whiteSpace=wrap;rounded=0;" vertex="1" parent="1">
          <mxGeometry x="700" y="1810" width="80" height="30" as="geometry" />
        </mxCell>
        <mxCell id="xKD4JRFba7Fiyy8XvRiu-149" value="" style="verticalLabelPosition=bottom;shadow=0;dashed=0;align=center;html=1;verticalAlign=top;strokeWidth=1;shape=mxgraph.mockup.containers.userMale;strokeColor=#666666;strokeColor2=#008cff;" vertex="1" parent="1">
          <mxGeometry x="51" y="1845" width="80" height="80" as="geometry" />
        </mxCell>
        <mxCell id="xKD4JRFba7Fiyy8XvRiu-150" value="&quot;Lorem ipsum dolor sit amet, consectetur adipiscing elit, sed do eiusmod tempor incididunt ut labore et dolore magna aliqua. Ut enim ad minim veniam, quis nostrud exercitation ullamco laboris nisi ut aliquip ex ea commodo consequat. Duis aute irure dolor in reprehenderit in voluptate velit esse cillum dolore eu fugiat nulla pariatur.&quot;" style="text;strokeColor=none;align=left;fillColor=none;html=1;verticalAlign=middle;whiteSpace=wrap;rounded=0;fontSize=15;" vertex="1" parent="1">
          <mxGeometry x="156" y="1840" width="620" height="90" as="geometry" />
        </mxCell>
        <mxCell id="xKD4JRFba7Fiyy8XvRiu-151" value="Name&lt;br&gt;fb ig tw yt x y" style="text;strokeColor=none;align=center;fillColor=none;html=1;verticalAlign=middle;whiteSpace=wrap;rounded=0;" vertex="1" parent="1">
          <mxGeometry x="51" y="1925" width="80" height="30" as="geometry" />
        </mxCell>
        <mxCell id="xKD4JRFba7Fiyy8XvRiu-152" value="" style="verticalLabelPosition=bottom;shadow=0;dashed=0;align=center;html=1;verticalAlign=top;strokeWidth=1;shape=mxgraph.mockup.containers.userMale;strokeColor=#666666;strokeColor2=#008cff;" vertex="1" parent="1">
          <mxGeometry x="698" y="1955" width="80" height="80" as="geometry" />
        </mxCell>
        <mxCell id="xKD4JRFba7Fiyy8XvRiu-153" value="&quot;Lorem ipsum dolor sit amet, consectetur adipiscing elit, sed do eiusmod tempor incididunt ut labore et dolore magna aliqua. Ut enim ad minim veniam, quis nostrud exercitation ullamco laboris nisi ut aliquip ex ea commodo consequat. Duis aute irure dolor in reprehenderit in voluptate velit esse cillum dolore eu fugiat nulla pariatur.&quot;" style="text;strokeColor=none;align=right;fillColor=none;html=1;verticalAlign=middle;whiteSpace=wrap;rounded=0;fontSize=15;" vertex="1" parent="1">
          <mxGeometry x="48" y="1965" width="620" height="90" as="geometry" />
        </mxCell>
        <mxCell id="xKD4JRFba7Fiyy8XvRiu-154" value="Name&lt;br&gt;fb ig tw yt x y" style="text;strokeColor=none;align=center;fillColor=none;html=1;verticalAlign=middle;whiteSpace=wrap;rounded=0;" vertex="1" parent="1">
          <mxGeometry x="698" y="2035" width="80" height="30" as="geometry" />
        </mxCell>
        <mxCell id="xKD4JRFba7Fiyy8XvRiu-161" value="" style="verticalLabelPosition=bottom;shadow=0;dashed=0;align=center;html=1;verticalAlign=top;strokeWidth=1;shape=mxgraph.mockup.containers.userMale;strokeColor=#666666;strokeColor2=#008cff;" vertex="1" parent="1">
          <mxGeometry x="48" y="2070" width="80" height="80" as="geometry" />
        </mxCell>
        <mxCell id="xKD4JRFba7Fiyy8XvRiu-162" value="&quot;Lorem ipsum dolor sit amet, consectetur adipiscing elit, sed do eiusmod tempor incididunt ut labore et dolore magna aliqua. Ut enim ad minim veniam, quis nostrud exercitation ullamco laboris nisi ut aliquip ex ea commodo consequat. Duis aute irure dolor in reprehenderit in voluptate velit esse cillum dolore eu fugiat nulla pariatur.&quot;" style="text;strokeColor=none;align=left;fillColor=none;html=1;verticalAlign=middle;whiteSpace=wrap;rounded=0;fontSize=15;" vertex="1" parent="1">
          <mxGeometry x="153" y="2065" width="620" height="90" as="geometry" />
        </mxCell>
        <mxCell id="xKD4JRFba7Fiyy8XvRiu-163" value="Name&lt;br&gt;fb ig tw yt x y" style="text;strokeColor=none;align=center;fillColor=none;html=1;verticalAlign=middle;whiteSpace=wrap;rounded=0;" vertex="1" parent="1">
          <mxGeometry x="48" y="2150" width="80" height="30" as="geometry" />
        </mxCell>
        <mxCell id="xKD4JRFba7Fiyy8XvRiu-164" value="" style="verticalLabelPosition=bottom;shadow=0;dashed=0;align=center;html=1;verticalAlign=top;strokeWidth=1;shape=mxgraph.mockup.containers.userMale;strokeColor=#666666;strokeColor2=#008cff;" vertex="1" parent="1">
          <mxGeometry x="698" y="2180" width="80" height="80" as="geometry" />
        </mxCell>
        <mxCell id="xKD4JRFba7Fiyy8XvRiu-165" value="&quot;Lorem ipsum dolor sit amet, consectetur adipiscing elit, sed do eiusmod tempor incididunt ut labore et dolore magna aliqua. Ut enim ad minim veniam, quis nostrud exercitation ullamco laboris nisi ut aliquip ex ea commodo consequat. Duis aute irure dolor in reprehenderit in voluptate velit esse cillum dolore eu fugiat nulla pariatur.&quot;" style="text;strokeColor=none;align=right;fillColor=none;html=1;verticalAlign=middle;whiteSpace=wrap;rounded=0;fontSize=15;" vertex="1" parent="1">
          <mxGeometry x="48" y="2190" width="620" height="90" as="geometry" />
        </mxCell>
        <mxCell id="xKD4JRFba7Fiyy8XvRiu-166" value="Name&lt;br&gt;fb ig tw yt x y" style="text;strokeColor=none;align=center;fillColor=none;html=1;verticalAlign=middle;whiteSpace=wrap;rounded=0;" vertex="1" parent="1">
          <mxGeometry x="698" y="2260" width="80" height="30" as="geometry" />
        </mxCell>
        <mxCell id="xKD4JRFba7Fiyy8XvRiu-167" style="edgeStyle=orthogonalEdgeStyle;rounded=0;orthogonalLoop=1;jettySize=auto;html=1;exitX=0.5;exitY=1;exitDx=0;exitDy=0;" edge="1" parent="1" source="xKD4JRFba7Fiyy8XvRiu-139" target="xKD4JRFba7Fiyy8XvRiu-139">
          <mxGeometry relative="1" as="geometry" />
        </mxCell>
        <mxCell id="xKD4JRFba7Fiyy8XvRiu-168" value="" style="rounded=0;whiteSpace=wrap;html=1;" vertex="1" parent="1">
          <mxGeometry x="3" y="2320" width="817" height="50" as="geometry" />
        </mxCell>
        <mxCell id="xKD4JRFba7Fiyy8XvRiu-169" style="edgeStyle=orthogonalEdgeStyle;rounded=0;orthogonalLoop=1;jettySize=auto;html=1;exitX=0;exitY=0.5;exitDx=0;exitDy=0;" edge="1" parent="1" source="xKD4JRFba7Fiyy8XvRiu-170">
          <mxGeometry relative="1" as="geometry">
            <mxPoint x="350.80952380952374" y="2350.142857142857" as="targetPoint" />
            <Array as="points">
              <mxPoint x="338" y="2350" />
              <mxPoint x="338" y="2350" />
            </Array>
          </mxGeometry>
        </mxCell>
        <mxCell id="xKD4JRFba7Fiyy8XvRiu-170" value="PART TIME &#xa;SUPER HEROES" style="text;spacingTop=-3;align=center;fillColor=#000000;fontColor=#ffffff;strokeColor=#B20000;gradientColor=#e32400;fillStyle=auto;shadow=0;spacingBottom=0;fontSize=18;spacing=0;fontStyle=0" vertex="1" parent="1">
          <mxGeometry x="308" y="2320" width="210" height="50" as="geometry" />
        </mxCell>
        <mxCell id="xKD4JRFba7Fiyy8XvRiu-171" value="Contact" style="text;strokeColor=none;align=center;fillColor=none;html=1;verticalAlign=middle;whiteSpace=wrap;rounded=0;fontColor=#ebebeb;" vertex="1" parent="1">
          <mxGeometry x="708" y="2340" width="60" height="30" as="geometry" />
        </mxCell>
        <mxCell id="xKD4JRFba7Fiyy8XvRiu-172" value="About" style="text;strokeColor=none;align=center;fillColor=none;html=1;verticalAlign=middle;whiteSpace=wrap;rounded=0;" vertex="1" parent="1">
          <mxGeometry x="638" y="2340" width="60" height="30" as="geometry" />
        </mxCell>
        <mxCell id="xKD4JRFba7Fiyy8XvRiu-173" value="Merch&lt;br&gt;" style="text;strokeColor=none;align=center;fillColor=none;html=1;verticalAlign=middle;whiteSpace=wrap;rounded=0;" vertex="1" parent="1">
          <mxGeometry x="568" y="2340" width="60" height="30" as="geometry" />
        </mxCell>
        <mxCell id="xKD4JRFba7Fiyy8XvRiu-174" value="Listen" style="text;strokeColor=none;align=center;fillColor=none;html=1;verticalAlign=middle;whiteSpace=wrap;rounded=0;" vertex="1" parent="1">
          <mxGeometry x="708" y="2320" width="60" height="30" as="geometry" />
        </mxCell>
        <mxCell id="xKD4JRFba7Fiyy8XvRiu-175" value="Gallery" style="text;strokeColor=none;align=center;fillColor=none;html=1;verticalAlign=middle;whiteSpace=wrap;rounded=0;" vertex="1" parent="1">
          <mxGeometry x="636" y="2320" width="60" height="30" as="geometry" />
        </mxCell>
        <mxCell id="xKD4JRFba7Fiyy8XvRiu-176" value="Calendar" style="text;strokeColor=none;align=center;fillColor=none;html=1;verticalAlign=middle;whiteSpace=wrap;rounded=0;" vertex="1" parent="1">
          <mxGeometry x="566" y="2320" width="60" height="30" as="geometry" />
        </mxCell>
        <mxCell id="xKD4JRFba7Fiyy8XvRiu-177" value="facebook &amp;nbsp; &amp;nbsp; &amp;nbsp;instagram &amp;nbsp; &amp;nbsp; &amp;nbsp;twitter&lt;br&gt;youtube &amp;nbsp; &amp;nbsp; &amp;nbsp; &amp;nbsp; &amp;nbsp; link5 &amp;nbsp; &amp;nbsp; &amp;nbsp; &amp;nbsp; &amp;nbsp; &amp;nbsp; link6" style="text;strokeColor=none;align=center;fillColor=none;html=1;verticalAlign=middle;whiteSpace=wrap;rounded=0;" vertex="1" parent="1">
          <mxGeometry x="20" y="2320" width="250" height="50" as="geometry" />
        </mxCell>
        <mxCell id="xKD4JRFba7Fiyy8XvRiu-178" value="If ii end up not making another page for the gallery, then i will throw it just before the footer." style="shape=note;whiteSpace=wrap;html=1;backgroundOutline=1;fontColor=#000000;darkOpacity=0.05;fillColor=#FFF9B2;strokeColor=none;fillStyle=solid;direction=west;gradientDirection=north;gradientColor=#FFF2A1;shadow=1;size=20;pointerEvents=1;" vertex="1" parent="1">
          <mxGeometry x="35" y="2400" width="140" height="90" as="geometry" />
        </mxCell>
      </root>
    </mxGraphModel>
  </diagram>
</mxfile>
